<svg width="37" height="10" viewBox="0 0 37 10" fill="none" xmlns="http://www.w3.org/2000/svg">
  <path fill-rule="evenodd" clip-rule="evenodd" d="M1.66041 0.130533H0V5.90956H1.63886C2.52317 5.90956 3.14836 5.71533 3.70909 5.24105C4.35605 4.7021 4.76566 3.88247 4.76566 3.01994C4.76566 1.31665 3.49329 0.130533 1.66041 0.130533V0.130533ZM2.97589 4.48631C2.6094 4.78833 2.15626 4.93924 1.42327 4.93924H1.12145V1.12241H1.42327C2.15626 1.12241 2.58763 1.25176 2.97589 1.57513C3.36394 1.92006 3.6013 2.45943 3.6013 3.01994C3.60109 3.58066 3.36394 4.14138 2.97589 4.48631ZM5.28327 5.90977H6.40451V0.130533H5.28327V5.90977ZM9.16461 2.35164C8.47454 2.09294 8.28051 1.94204 8.28051 1.61846C8.28051 1.25197 8.647 0.993275 9.1215 0.993275C9.46643 0.993275 9.7469 1.12262 10.0272 1.44599L10.631 0.691461C10.1349 0.260091 9.55287 0.0445113 8.92747 0.0445113C7.89246 0.0445113 7.11615 0.756136 7.11615 1.7049C7.11615 2.50276 7.48264 2.89101 8.53942 3.27906C8.99235 3.42996 9.20794 3.53775 9.31573 3.60243C9.55287 3.75354 9.66066 3.96891 9.66066 4.20626C9.66066 4.68075 9.29417 5.02568 8.77656 5.02568C8.25895 5.02568 7.80622 4.74542 7.54731 4.24938L6.83589 4.961C7.3535 5.71554 7.97869 6.06067 8.84124 6.06067C10.0056 6.06067 10.8252 5.28438 10.8252 4.16315C10.825 3.23573 10.437 2.82592 9.16461 2.35164V2.35164ZM11.1702 3.01994C11.1702 4.72345 12.5072 6.03891 14.2321 6.03891C14.7066 6.03891 15.1377 5.95247 15.6338 5.71533V4.37831C15.1809 4.83103 14.7928 5.02526 14.2752 5.02526C13.154 5.02526 12.3345 4.18429 12.3345 3.01973C12.3345 1.92006 13.1755 1.03597 14.2321 1.03597C14.7713 1.03597 15.1809 1.22999 15.6338 1.68292V0.367463C15.1593 0.108557 14.7497 0.000976562 14.2536 0.000976562C12.5501 0.00118586 11.1702 1.35976 11.1702 3.01994V3.01994Z" fill="#1A1A1A"/>
  <path fill-rule="evenodd" clip-rule="evenodd" d="M19.0839 0C17.3802 0 16 1.33705 16 2.97571C16 4.74415 17.3155 6.03787 19.0839 6.03787C20.8086 6.03787 22.1674 4.72238 22.1674 3.01883C22.1676 1.33705 20.8303 0 19.0839 0Z" fill="url(#paint0_radial)"/>
  <path fill-rule="evenodd" clip-rule="evenodd" d="M24.7765 4.01133L23.2455 0.129883H21.9947L24.4532 6.05973H25.057L27.5584 0.129883H26.3292L24.7765 4.01133ZM28.076 5.90904H31.2675V4.93852H29.1972V3.38594H31.181V2.39408H29.1972V1.12175H31.2675V0.129883H28.076V5.90904ZM35.7311 1.83336C35.7311 0.755267 34.9977 0.129883 33.6826 0.129883H32.022V5.90883H33.1432V3.60152H33.2941L34.8468 5.90883H36.2269L34.4156 3.47196C35.2564 3.29971 35.7311 2.71744 35.7311 1.83336V1.83336ZM33.4666 2.80388H33.1432V1.03573H33.4882C34.1998 1.03573 34.5661 1.33754 34.5661 1.89825C34.5663 2.48031 34.2 2.80388 33.4666 2.80388V2.80388ZM0.25667 7.60582V8.12362H0.896092V8.33313H0.25667V9.23521H0.0268555V7.3961H0.917022V7.60582H0.25667ZM1.96668 7.3961H2.1967V9.23521H1.96668V7.3961ZM3.30706 7.30778L4.68636 8.75508V7.3961H4.91618V9.31098L3.53541 7.86451V9.23521H3.30706V7.30778V7.30778ZM7.04249 8.56483H6.38737L6.71472 7.82014L7.04249 8.56483ZM7.13668 8.77454L7.3464 9.23521H7.5938L6.71493 7.31803L5.83649 9.23521H6.08284L6.29318 8.77454H7.13668V8.77454ZM8.51368 7.30778L9.89446 8.75508V7.3961H10.1245V9.31098L8.74203 7.86451V9.23521H8.51368V7.30778V7.30778ZM12.5775 7.74772C12.4467 7.6301 12.2654 7.5671 12.0919 7.5671C11.6807 7.5671 11.3659 7.91098 11.3659 8.31848C11.3659 8.72096 11.6775 9.06463 12.0877 9.06463C12.2686 9.06463 12.441 8.99682 12.5773 8.87438V9.14563C12.4301 9.22905 12.2639 9.27336 12.0947 9.27435C11.5691 9.27435 11.1354 8.85743 11.1354 8.32539C11.1354 7.78121 11.572 7.35634 12.1147 7.35634C12.2761 7.35634 12.4392 7.3961 12.5771 7.48129V7.74772H12.5775V7.74772ZM13.633 7.3961H13.8616V9.23521H13.633V7.3961ZM16.0042 8.56483H15.3493L15.6783 7.82014L16.0042 8.56483V8.56483ZM16.0986 8.77454L16.309 9.23521H16.5553L15.6783 7.31803L14.7995 9.23521H15.0452L15.2549 8.77454H16.0986V8.77454ZM17.7266 9.02654H18.2856V9.23521H17.498V7.3961H17.7266V9.02654ZM21.5353 7.74521C21.4687 7.62989 21.3804 7.57149 21.2402 7.57149C21.0934 7.57149 20.9319 7.67133 20.9319 7.83291C20.9319 7.97628 21.0754 8.05246 21.1893 8.09621L21.3201 8.1479C21.5822 8.24983 21.7772 8.39425 21.7772 8.70129C21.7772 9.03596 21.5181 9.27435 21.1893 9.27435C20.8912 9.27435 20.6595 9.05521 20.6215 8.75989L20.8527 8.71154C20.8498 8.91352 21.011 9.06003 21.2075 9.06003C21.4057 9.06003 21.5468 8.89468 21.5468 8.70129C21.5468 8.50413 21.3886 8.41832 21.2303 8.35197L21.1039 8.29902C20.8933 8.2086 20.7033 8.0893 20.7033 7.83291C20.7033 7.53487 20.9666 7.35634 21.2454 7.35634C21.4495 7.35634 21.6182 7.45701 21.7176 7.6347L21.5353 7.74521V7.74521ZM22.8156 7.3961H23.8043V7.60582H23.0456V8.12132H23.7836V8.33083H23.0456V9.02654H23.8043V9.23521H22.8156V7.3961V7.3961ZM25.1064 7.60101H25.1652C25.3942 7.60101 25.6667 7.64245 25.6667 7.93086C25.6667 8.22325 25.4116 8.26679 25.1778 8.26679H25.1062V7.60101H25.1064V7.60101ZM25.44 8.43569C25.7058 8.40346 25.8815 8.18453 25.8815 7.9206C25.8815 7.74521 25.7931 7.57149 25.6391 7.48108C25.4932 7.3984 25.3174 7.3961 25.1548 7.3961H24.8768V9.23521H25.1066V8.45808H25.201L25.7427 9.23521H26.0202L25.44 8.43569V8.43569ZM27.5961 8.75738L28.1426 7.3961H28.3944L27.5961 9.33379L26.7963 7.3961H27.0477L27.5961 8.75738ZM29.331 7.3961H29.5606V9.23521H29.331V7.3961ZM32.0339 7.74772C31.9014 7.6301 31.72 7.5671 31.5458 7.5671C31.135 7.5671 30.8202 7.91098 30.8202 8.31848C30.8202 8.72096 31.1316 9.06463 31.5416 9.06463C31.7227 9.06463 31.8968 8.99682 32.0339 8.87438V9.14563C31.8862 9.22891 31.7196 9.27321 31.55 9.27435C31.0259 9.27435 30.5902 8.85743 30.5902 8.32539C30.5902 7.78121 31.0289 7.35634 31.5693 7.35634C31.7306 7.35634 31.8939 7.3961 32.0341 7.48129V7.74772H32.0339V7.74772ZM33.0934 7.3961H34.082V7.60582H33.3237V8.12132H34.0602V8.33083H33.3237V9.02654H34.082V9.23521H33.0934V7.3961V7.3961ZM35.9697 7.74521C35.9027 7.62989 35.8148 7.57149 35.6758 7.57149C35.5299 7.57149 35.3683 7.67133 35.3683 7.83291C35.3683 7.97628 35.5107 8.05246 35.6243 8.09621L35.7572 8.1479C36.0172 8.24983 36.2122 8.39425 36.2122 8.70129C36.2122 9.03596 35.9535 9.27435 35.6243 9.27435C35.3275 9.27435 35.0941 9.05521 35.0569 8.75989L35.2875 8.71154C35.2846 8.91352 35.447 9.06003 35.644 9.06003C35.8418 9.06003 35.9837 8.89468 35.9837 8.70129C35.9837 8.50413 35.8238 8.41832 35.666 8.35197L35.5393 8.29902C35.3288 8.2086 35.1387 8.0893 35.1387 7.83291C35.1387 7.53487 35.4025 7.35634 35.6808 7.35634C35.8849 7.35634 36.054 7.45701 36.1547 7.6347L35.9697 7.74521V7.74521ZM36.3899 0.642456C36.3899 0.686827 36.3596 0.710268 36.2981 0.710268H36.2771V0.577782H36.2995C36.3606 0.577991 36.3899 0.598922 36.3899 0.642456ZM36.5704 0.992612L36.4027 0.782058C36.4743 0.76364 36.5155 0.711315 36.5155 0.639317C36.5155 0.539691 36.4456 0.483389 36.3213 0.483389H36.1591V0.992612H36.2792V0.795452L36.422 0.992612H36.5704ZM36.7845 0.737058C36.7845 0.493853 36.5867 0.293346 36.3466 0.293346C36.2882 0.292958 36.2303 0.304163 36.1762 0.326311C36.1221 0.348459 36.073 0.381111 36.0316 0.422377C35.9903 0.463644 35.9575 0.512704 35.9352 0.566719C35.9129 0.620734 35.9016 0.678631 35.9018 0.737058C35.9018 0.98424 36.1005 1.1814 36.3466 1.1814C36.5867 1.18119 36.7845 0.980891 36.7845 0.737058ZM36.6949 0.738315C36.6949 0.937986 36.5379 1.10166 36.3445 1.10166C36.1499 1.10166 35.9898 0.938823 35.9898 0.738315C35.9898 0.535505 36.1484 0.374343 36.3445 0.374343C36.5379 0.374343 36.6949 0.538016 36.6949 0.738315Z" fill="#1A1A1A"/>
  <defs>
  <radialGradient id="paint0_radial" cx="0" cy="0" r="1" gradientUnits="userSpaceOnUse" gradientTransform="translate(19.0837 3.01893) rotate(90) scale(3.48107 3.55573)">
    <stop stop-color="#FDF8F5"/>
    <stop offset="1" stop-color="#DB8338"/>
  </radialGradient>
  </defs>
</svg>
