<svg width="47" height="16" viewBox="0 0 47 16" fill="none" xmlns="http://www.w3.org/2000/svg">
<path d="M3.67705 0.54925C1.66678 0.996603 0.298993 2.74896 0.206028 5.00471C0.160005 6.08287 0.37355 6.88721 0.910173 7.70419C1.19367 8.1181 2.09387 9.00197 2.70045 9.45565C3.75713 10.2437 4.04615 10.6242 3.98816 11.1511C3.94766 11.48 3.77462 11.7123 3.43405 11.8714C2.6084 12.2735 1.4247 11.7747 0.460072 10.6179L0.246527 10.363V15.0742L0.633117 15.1935C1.41826 15.4375 1.67323 15.4655 3.04654 15.4655C4.27718 15.4655 4.4042 15.4547 4.80828 15.3354C6.02696 14.9613 7.02013 14.1452 7.57424 13.0733C7.67825 12.8745 7.81079 12.5853 7.86878 12.4208L7.97831 12.1208V13.7475L7.98384 15.3806H11.9105L11.9224 11.8433L11.9399 8.30518L13.3252 11.8262L14.7169 15.3526L16.4032 15.3697L18.0895 15.3806V0.582689H14.1628L14.1509 3.79188L14.1343 6.99566L13.2102 3.79188L12.286 0.583592H7.98384V4.9315C7.97831 9.26947 7.97831 9.28574 7.86878 8.99112C7.59172 8.23198 7.03669 7.53971 6.16595 6.87094C5.82446 6.60976 5.35135 6.24103 5.10835 6.05395C4.53675 5.61112 4.28915 5.26047 4.28915 4.88632C4.28915 4.64773 4.31676 4.57452 4.49625 4.38745C4.7328 4.12627 4.99329 4.02415 5.40842 4.03047C5.86496 4.04132 6.55162 4.39829 7.05971 4.89174L7.4647 5.28306V1.04812L7.09468 0.900806C6.31506 0.59986 5.87601 0.514908 4.92334 0.492314C4.30019 0.480566 3.92005 0.497737 3.67705 0.54925ZM41.6604 0.577266C41.4303 0.634202 41.0142 0.786936 40.7427 0.923401C39.9051 1.33099 39.0914 2.20491 38.7214 3.08877C38.6404 3.2876 38.5713 3.4575 38.5603 3.46292C38.5483 3.47467 38.4498 3.29844 38.3403 3.06618C37.6702 1.65453 36.3485 0.871887 34.2581 0.645048C33.831 0.594438 32.3288 0.58269 29.1818 0.594438L24.713 0.611609L23.7254 2.67486L22.7377 4.73358L22.7203 2.65768L22.7092 0.582689H18.6666V15.3806H22.7092V12.2735L22.7147 9.17277L23.9334 12.2735L25.1576 15.3806H32.8139L32.8323 13.3508C32.8379 12.2392 32.8379 10.9071 32.8323 10.3919C32.8259 9.87589 32.8434 9.49541 32.8664 9.5406C32.8894 9.58578 33.3855 10.9188 33.9691 12.5004L35.0258 15.3743L37.4567 15.4032C38.7913 15.4213 40.3966 15.4484 41.0253 15.4719C42.0424 15.4999 42.209 15.4881 42.671 15.3815C43.3173 15.2311 43.9222 14.9434 44.443 14.5387C44.9639 14.134 45.388 13.6221 45.6855 13.039C46.0325 12.3585 46.1595 11.809 46.1936 10.9016C46.2691 8.95678 45.6855 7.90211 43.7572 6.47962C42.4059 5.48731 42.1114 4.99929 42.5146 4.43806C42.9196 3.87774 43.8612 3.91118 44.6923 4.51759C45.0384 4.76702 45.691 5.42495 45.691 5.52075C45.691 5.54967 45.7205 5.57226 45.749 5.57226C45.784 5.57226 45.807 4.77877 45.807 3.31019V1.05264L45.472 0.905326C44.8138 0.616128 44.2533 0.514005 43.1221 0.491411C42.2495 0.47424 42.0129 0.486892 41.6604 0.577266ZM28.7603 10.5447L28.7437 13.5948L27.375 10.3522C26.6184 8.57178 26.0007 7.09145 26.0007 7.06344C26.0007 7.04084 26.6174 5.75933 27.3685 4.22297L28.7437 1.42136L28.7603 4.46065C28.7667 6.13348 28.7667 8.87183 28.7603 10.5447ZM33.9175 4.02415C34.4772 4.33594 34.7717 4.95952 34.7027 5.71415C34.6217 6.70013 33.9866 7.38065 33.149 7.38607H32.8139V3.79731L33.2125 3.82623C33.519 3.84882 33.6865 3.89853 33.9175 4.02415ZM39.6225 8.42447C39.894 8.70192 40.3791 9.13301 40.6967 9.38244C41.0142 9.63188 41.3953 9.93192 41.5508 10.0566C42.429 10.7823 42.1979 11.809 41.1118 12.0015C40.4021 12.1262 39.1429 11.4457 38.5658 10.6242C38.4738 10.4931 38.3753 10.3919 38.3523 10.3919C38.3228 10.3919 38.2943 10.9468 38.2878 11.621L38.2713 12.8465L37.3876 11.0489C36.897 10.0566 36.5095 9.24598 36.5215 9.24055C37.1216 8.94593 37.2892 8.82664 37.6702 8.46333C38.0172 8.12895 38.1617 7.93013 38.3578 7.54513L38.6063 7.05169L38.8659 7.48277C39.0104 7.72678 39.3399 8.13528 39.6225 8.42447Z" fill="black"/>
</svg>
